<svg xmlns="http://www.w3.org/2000/svg" width="24" height="24" viewBox="0 0 48 48">
  <path fill="#EA4335" d="M24 9.5c3.1 0 5.9 1.1 8 3.2l6-6C34.7 3 29.7 1 24 1 14.8 1 7 6.7 3.7 14.9l7.1 5.5C12.6 14 17.9 9.5 24 9.5z"></path>
  <path fill="#4285F4" d="M46.1 24.5c0-1.6-.1-3.1-.4-4.5H24v9h12.6c-.6 3.1-2.3 5.6-4.9 7.3l7.5 5.8c4.4-4 7-9.9 7-17.6z"></path>
  <path fill="#FBBC05" d="M10.8 28.4c-.6-1.7-1-3.4-1-5.4s.4-3.7 1-5.4L3.7 14.9C2 18.3 1 21.9 1 25.5s1 7.2 2.7 10.6l7.1-5.5z"></path>
  <path fill="#34A853" d="M24 47c6.5 0 12-2.1 16-5.7l-7.5-5.8c-2.1 1.4-4.8 2.2-8.5 2.2-6.1 0-11.4-4.1-13.2-9.6l-7.1 5.5C7 41.3 14.8 47 24 47z"></path>
</svg>
